# xmcd
# 
# Track frame offsets:
#     182
#     24580
#     56295
#     68520
#     87045
#     105082
#     118702
#     133427
#     155870
#     175262
#     201440
#     232800
# 
# Disc length: 3345
# 
# Revision: 1
# Processed by: cddbd v1.5.2PL0 Copyright (c) Steve Scherf et al.
# Submitted via: BonkEnc v1.0.8
# 
DISCID=990d0f0c
DTITLE=Alain Jean-Marie, Niels-Henning Ørsted Pedersen - Latin Alley
DYEAR=1987
DGENRE=Contemporary Jazz
TTITLE0=I Hear A Rhapsody
TTITLE1=Old Folks
TTITLE2=Italian Sorrow
TTITLE3=Barbados - Au Private
TTITLE4=On Ti Berceuse
TTITLE5=Swingin' The Samba
TTITLE6=No Tears
TTITLE7=Samba Petite
TTITLE8=Haiti
TTITLE9=Latin Alley
TTITLE10=Nica's Dream
TTITLE11=How About You
EXTD=YEAR: 1987
EXTT0=
EXTT1=
EXTT2=
EXTT3=
EXTT4=
EXTT5=
EXTT6=
EXTT7=
EXTT8=
EXTT9=
EXTT10=
EXTT11=
PLAYORDER=
